HIERARCHY
ROOT Hips
{
	OFFSET 0.000000 1.471914 24.280096
	CHANNELS 6 Xposition Yposition Zposition Xrotation Yrotation Zrotation
	JOINT Spine
	{
		OFFSET 0.000000 0.900110 1.860670
		CHANNELS 6 Xposition Yposition Zposition Xrotation Yrotation Zrotation
		JOINT Spine1
		{
			OFFSET 0.000000 0.400320 2.270309
			CHANNELS 6 Xposition Yposition Zposition Xrotation Yrotation Zrotation
			JOINT Spine2
			{
				OFFSET 0.000000 0.200920 2.296560
				CHANNELS 6 Xposition Yposition Zposition Xrotation Yrotation Zrotation
				JOINT Spine3
				{
					OFFSET 0.000000 0.000000 2.305330
					CHANNELS 6 Xposition Yposition Zposition Xrotation Yrotation Zrotation
					JOINT Neck
					{
						OFFSET 0.000000 -0.864490 6.051487
						CHANNELS 6 Xposition Yposition Zposition Xrotation Yrotation Zrotation
						JOINT Head
						{
							OFFSET 0.000000 -0.550429 3.121674
							CHANNELS 6 Xposition Yposition Zposition Xrotation Yrotation Zrotation
							End Site
							{
								OFFSET 0.000000 0.000000 3.731750
							}
						}
					}
					JOINT RightShoulder
					{
						OFFSET -0.788280 -1.313800 4.256718
						CHANNELS 6 Xposition Yposition Zposition Xrotation Yrotation Zrotation
						JOINT RightArm
						{
							OFFSET -3.915130 0.000000 0.000000
							CHANNELS 6 Xposition Yposition Zposition Xrotation Yrotation Zrotation
							JOINT RightForeArm
							{
								OFFSET -6.914910 0.000000 0.000000
								CHANNELS 6 Xposition Yposition Zposition Xrotation Yrotation Zrotation
								JOINT RightHand
								{
									OFFSET -6.096219 0.000000 0.000000
									CHANNELS 6 Xposition Yposition Zposition Xrotation Yrotation Zrotation
									JOINT RightHandEnd
									{
										OFFSET -1.749950 0.000000 0.000000
										CHANNELS 6 Xposition Yposition Zposition Xrotation Yrotation Zrotation
										End Site
										{
											OFFSET -1.749950 0.000000 0.000000
										}
									}
									JOINT RightHandThumb1
									{
										OFFSET -0.699980 -1.166630 -0.466648
										CHANNELS 6 Xposition Yposition Zposition Xrotation Yrotation Zrotation
										End Site
										{
											OFFSET -1.690319 -0.452920 0.000000
										}
									}
								}
							}
						}
					}
					JOINT LeftShoulder
					{
						OFFSET 0.788280 -1.313800 4.256718
						CHANNELS 6 Xposition Yposition Zposition Xrotation Yrotation Zrotation
						JOINT LeftArm
						{
							OFFSET 3.915130 0.000000 0.000000
							CHANNELS 6 Xposition Yposition Zposition Xrotation Yrotation Zrotation
							JOINT LeftForeArm
							{
								OFFSET 6.914910 0.000000 0.000000
								CHANNELS 6 Xposition Yposition Zposition Xrotation Yrotation Zrotation
								JOINT LeftHand
								{
									OFFSET 6.096219 0.000000 0.000000
									CHANNELS 6 Xposition Yposition Zposition Xrotation Yrotation Zrotation
									JOINT LeftHandEnd
									{
										OFFSET 1.749950 0.000000 0.000000
										CHANNELS 6 Xposition Yposition Zposition Xrotation Yrotation Zrotation
										End Site
										{
											OFFSET 1.749950 0.000000 0.000000
										}
									}
									JOINT LeftHandThumb1
									{
										OFFSET 0.699980 -1.166630 -0.466648
										CHANNELS 6 Xposition Yposition Zposition Xrotation Yrotation Zrotation
										End Site
										{
											OFFSET 1.690319 -0.452920 0.000000
										}
									}
								}
							}
						}
					}
				}
			}
		}
	}
	JOINT RightUpLeg
	{
		OFFSET -2.338570 -0.252550 -0.551512
		CHANNELS 6 Xposition Yposition Zposition Xrotation Yrotation Zrotation
		JOINT RightLeg
		{
			OFFSET 0.000000 0.000000 -10.744959
			CHANNELS 6 Xposition Yposition Zposition Xrotation Yrotation Zrotation
			JOINT RightFoot
			{
				OFFSET 0.000000 -0.000001 -10.930849
				CHANNELS 6 Xposition Yposition Zposition Xrotation Yrotation Zrotation
				JOINT RightToeBase
				{
					OFFSET 0.000000 -4.087269 -1.487650
					CHANNELS 6 Xposition Yposition Zposition Xrotation Yrotation Zrotation
					End Site
					{
						OFFSET 0.000000 -1.891870 0.000000
					}
				}
			}
		}
	}
	JOINT LeftUpLeg
	{
		OFFSET 2.338570 -0.252550 -0.551512
		CHANNELS 6 Xposition Yposition Zposition Xrotation Yrotation Zrotation
		JOINT LeftLeg
		{
			OFFSET 0.000000 0.000000 -10.744959
			CHANNELS 6 Xposition Yposition Zposition Xrotation Yrotation Zrotation
			JOINT LeftFoot
			{
				OFFSET 0.000000 -0.000001 -10.930849
				CHANNELS 6 Xposition Yposition Zposition Xrotation Yrotation Zrotation
				JOINT LeftToeBase
				{
					OFFSET 0.000000 -4.087269 -1.487650
					CHANNELS 6 Xposition Yposition Zposition Xrotation Yrotation Zrotation
					End Site
					{
						OFFSET 0.000000 -1.891870 0.000000
					}
				}
			}
		}
	}
}
MOTION
Frames: 4
Frame Time: 0.041667
0.000125 26.900761 32.886608 -7.831177 -13.736890 65.244419 -0.000012 0.900089 1.860670 23.112646 -6.517961 1.540648 0.000012 0.400280 2.270332 0.000004 -0.000002 0.000013 0.000015 0.200884 2.296551 -0.000000 0.000000 0.000007 0.000021 0.000027 2.305314 -0.000021 -0.000005 4.703026 -0.000024 -0.864444 6.051421 -5.838083 1.495975 -178.813424 0.000037 -0.550417 3.121677 -0.000007 -0.000002 -0.000009 -0.788279 -1.313725 4.256852 174.145440 64.891312 -22.921988 -3.915094 -0.000015 -0.000012 -0.000002 -0.000008 0.000003 -6.914854 0.000012 0.000019 0.000002 0.000010 -72.748222 -6.096194 0.000035 0.000028 -0.000036 0.000006 -0.000075 -1.749897 -0.000042 0.000021 0.000002 0.000000 -0.000001 -0.699967 -1.166617 -0.466635 -0.000026 -0.000008 -0.000036 0.788249 -1.313746 4.256778 -178.840703 -78.933887 10.642141 3.915223 0.000001 -0.000038 0.000001 0.000005 0.000002 6.914955 -0.000073 0.000004 0.000007 0.000000 38.552726 6.096265 0.000176 -0.000035 0.000030 0.000003 0.000003 1.749987 0.000003 0.000068 -0.000011 -0.000005 -0.000004 0.699972 -1.166612 -0.466639 0.000019 -0.000000 -0.000029 -2.338596 -0.252548 -0.551473 -56.665442 -10.469966 -3.324181 0.000020 -0.000029 -10.744950 75.720338 -1.265409 -8.049814 -0.000036 0.000079 -10.930843 0.000010 -0.000006 0.000003 -0.000015 -4.087232 -1.487625 0.000005 0.000001 -0.000002 2.338573 -0.252540 -0.551501 -56.198486 9.580411 -3.314927 -0.000007 -0.000010 -10.744930 86.799963 -11.078408 11.913866 0.000010 0.000011 -10.930863 -0.000007 -0.000002 0.000008 -0.000045 -4.087193 -1.487646 0.000001 0.000001 -0.000004 
0.000117 26.900757 32.886608 -7.839252 -13.753961 65.258694 -0.000014 0.900090 1.860667 23.140273 -6.312966 1.519927 0.000010 0.400281 2.270338 0.000006 -0.000002 0.000009 0.000016 0.200884 2.296547 -0.000000 0.000000 0.000005 0.000018 0.000028 2.305314 -0.000021 -0.000003 4.920599 -0.000023 -0.864445 6.051422 -6.471041 1.306848 -179.458084 0.000037 -0.550417 3.121670 -0.000007 -0.000002 -0.000008 -0.788274 -1.313727 4.256847 176.722334 64.241467 -27.159921 -3.915100 -0.000015 -0.000008 -0.000003 -0.000007 0.000005 -6.914854 0.000010 0.000016 0.000006 0.000016 -68.550593 -6.096193 0.000039 0.000028 -0.000035 0.000007 -0.000074 -1.749894 -0.000036 0.000020 0.000001 0.000002 0.000001 -0.699966 -1.166619 -0.466637 -0.000023 -0.000003 -0.000032 0.788253 -1.313748 4.256773 -172.996971 -78.230617 17.180680 3.915222 0.000000 -0.000046 0.000004 0.000004 0.000002 6.914952 -0.000073 0.000008 0.000008 0.000002 38.346553 6.096264 0.000171 -0.000036 0.000028 -0.000001 0.000002 1.749989 0.000003 0.000070 -0.000013 -0.000006 -0.000006 0.699974 -1.166610 -0.466644 0.000016 -0.000000 -0.000025 -2.338597 -0.252546 -0.551473 -56.435667 -10.350846 -3.266869 0.000023 -0.000024 -10.744950 75.432841 -1.328147 -7.942770 -0.000040 0.000080 -10.930840 0.000010 -0.000006 0.000001 -0.000015 -4.087232 -1.487629 0.000004 0.000001 0.000002 2.338573 -0.252539 -0.551504 -55.827750 9.689804 -3.253762 -0.000003 -0.000006 -10.744932 86.531434 -11.331710 12.017978 0.000008 0.000012 -10.930862 -0.000005 -0.000003 0.000006 -0.000041 -4.087192 -1.487649 -0.000000 -0.000000 -0.000001 
0.000113 26.900761 32.886612 -7.797884 -13.762205 65.380347 -0.000013 0.900091 1.860665 23.122987 -6.069895 1.501079 0.000011 0.400280 2.270332 0.000005 -0.000001 0.000010 0.000017 0.200883 2.296549 -0.000001 0.000000 0.000002 0.000017 0.000028 2.305310 -0.000021 -0.000007 5.230374 -0.000023 -0.864446 6.051438 -6.922931 1.032101 -179.814647 0.000037 -0.550416 3.121673 -0.000008 -0.000001 -0.000007 -0.788275 -1.313729 4.256857 177.615477 63.824744 -29.511485 -3.915094 -0.000013 -0.000012 -0.000002 -0.000005 0.000005 -6.914857 0.000011 0.000018 0.000010 0.000027 -65.758678 -6.096196 0.000031 0.000027 -0.000033 0.000003 -0.000073 -1.749894 -0.000041 0.000016 -0.000002 -0.000005 0.000001 -0.699964 -1.166624 -0.466633 -0.000026 -0.000011 -0.000033 0.788254 -1.313750 4.256790 -170.566981 -77.695492 20.088025 3.915223 0.000001 -0.000046 0.000000 0.000004 0.000001 6.914954 -0.000074 0.000001 0.000005 -0.000005 37.272697 6.096263 0.000170 -0.000048 0.000026 0.000000 -0.000000 1.749990 0.000001 0.000071 -0.000013 -0.000009 -0.000005 0.699978 -1.166614 -0.466640 0.000014 -0.000004 -0.000029 -2.338598 -0.252545 -0.551474 -56.363189 -10.100176 -3.224697 0.000020 -0.000026 -10.744947 75.083313 -1.437169 -7.708896 -0.000039 0.000079 -10.930840 0.000010 -0.000007 -0.000000 -0.000013 -4.087231 -1.487626 0.000003 0.000001 0.000002 2.338573 -0.252540 -0.551504 -55.811084 9.957976 -3.218331 -0.000005 -0.000007 -10.744934 86.335647 -11.577447 12.270001 0.000008 0.000012 -10.930863 -0.000005 -0.000003 0.000005 -0.000045 -4.087193 -1.487648 0.000000 -0.000002 -0.000004 
0.000110 26.900763 32.886616 -7.829191 -13.843910 65.424627 -0.000015 0.900095 1.860664 23.181823 -6.022599 1.508361 0.000012 0.400280 2.270332 0.000006 -0.000002 0.000009 0.000013 0.200884 2.296549 -0.000000 0.000001 0.000005 0.000019 0.000029 2.305314 -0.000019 -0.000004 5.428225 -0.000025 -0.864449 6.051427 -7.286048 0.868544 -180.063225 0.000039 -0.550417 3.121670 -0.000007 -0.000002 -0.000009 -0.788276 -1.313729 4.256851 178.632410 63.391689 -32.170925 -3.915093 -0.000011 -0.000012 -0.000001 -0.000006 0.000005 -6.914858 0.000011 0.000015 0.000013 0.000031 -63.334111 -6.096193 0.000034 0.000028 -0.000033 0.000007 -0.000074 -1.749893 -0.000036 0.000011 0.000000 0.000003 -0.000001 -0.699966 -1.166617 -0.466642 -0.000026 -0.000006 -0.000032 0.788250 -1.313751 4.256783 -171.920315 -77.590327 19.110451 3.915218 0.000004 -0.000042 0.000004 0.000003 0.000003 6.914956 -0.000072 0.000005 0.000009 -0.000006 36.970072 6.096263 0.000170 -0.000040 0.000026 0.000003 0.000004 1.749992 0.000002 0.000082 -0.000009 -0.000006 -0.000007 0.699976 -1.166610 -0.466636 0.000016 -0.000000 -0.000026 -2.338598 -0.252543 -0.551476 -56.261385 -10.067386 -3.228573 0.000020 -0.000026 -10.744949 75.015380 -1.618186 -7.665550 -0.000038 0.000082 -10.930844 0.000010 -0.000006 0.000002 -0.000016 -4.087228 -1.487627 0.000002 0.000001 0.000002 2.338573 -0.252534 -0.551507 -55.474288 10.034937 -3.214597 -0.000006 -0.000009 -10.744930 86.034190 -11.634454 12.367099 0.000008 0.000010 -10.930865 -0.000003 -0.000001 0.000002 -0.000041 -4.087194 -1.487649 0.000001 -0.000002 -0.000001 
